<svg width="54" height="55" viewBox="0 0 54 55" fill="none" xmlns="http://www.w3.org/2000/svg">
<path d="M0.517638 15.4591C0.231755 14.3922 0.864919 13.2955 1.93185 13.0096L50.2281 0.0686447C51.2951 -0.217239 52.3917 0.415926 52.6776 1.48286L53.3279 3.90981C53.6138 4.97674 52.9806 6.07341 51.9137 6.3593L3.61743 19.3002C2.55049 19.5861 1.45382 18.953 1.16794 17.886L0.517638 15.4591Z" fill="#282828" style="fill:#282828;fill:color(display-p3 0.1585 0.1585 0.1585);fill-opacity:1;"/>
<path d="M4.47469 13.452L11.5517 11.5557L13.3915 15.2766L6.31451 17.1729L4.47469 13.452Z" fill="white" style="fill:white;fill-opacity:1;"/>
<path d="M16.5318 10.2213L23.6088 8.325L25.4486 12.046L18.3716 13.9422L16.5318 10.2213Z" fill="white" style="fill:white;fill-opacity:1;"/>
<path d="M28.5889 6.99058L35.6659 5.09431L37.5057 8.81527L30.4287 10.7115L28.5889 6.99058Z" fill="white" style="fill:white;fill-opacity:1;"/>
<path d="M40.6459 3.75992L47.7229 1.86364L49.5627 5.5846L42.4858 7.48088L40.6459 3.75992Z" fill="white" style="fill:white;fill-opacity:1;"/>
<path d="M0 23.8179V50.8229C0 53.032 1.79086 54.8229 4 54.8229H50C52.2091 54.8229 54 53.032 54 50.8229V23.8179C54 21.6087 52.2091 19.8179 50 19.8179H4C1.79086 19.8179 0 21.6087 0 23.8179Z" fill="#282828" style="fill:#282828;fill:color(display-p3 0.1585 0.1585 0.1585);fill-opacity:1;"/>
<path fill-rule="evenodd" clip-rule="evenodd" d="M27.136 29.0164C33.4585 22.5173 49.2661 33.89 27.136 48.5138C5.0059 33.8915 20.8135 22.5173 27.136 29.0164Z" fill="white" style="fill:white;fill-opacity:1;"/>
</svg>
